<svg width="52" height="48" fill="none" xmlns="http://www.w3.org/2000/svg"><g clip-path="url(#a)" fill="#000"><path d="M51.486 12H.514a.511.511 0 0 0-.514.506v34.988A.51.51 0 0 0 .514 48h50.972a.51.51 0 0 0 .514-.506V12.506a.51.51 0 0 0-.514-.506ZM2.849 45.192V14.808h46.3v30.384h-46.3ZM2.414 11h45.172a1.5 1.5 0 1 0 0-3H2.414a1.5 1.5 0 0 0 0 3ZM5.424 7h40.148a1.5 1.5 0 0 0 0-3H5.424a1.5 1.5 0 0 0 0 3ZM8.408 3h34.184A1.456 1.456 0 0 0 44 1.5 1.456 1.456 0 0 0 42.592 0H8.408A1.456 1.456 0 0 0 7 1.5 1.456 1.456 0 0 0 8.408 3Z"/></g><defs><clipPath id="a"><path fill="#fff" d="M0 0h52v48H0z"/></clipPath></defs></svg>