<svg width="67" height="37" viewBox="0 0 67 37" fill="none" xmlns="http://www.w3.org/2000/svg">
<g clip-path="url(#clip0_4_604)">
<path d="M63.9961 18.5C63.9961 18.5 51.1751 35 33.4961 35C15.8171 35 2.99609 18.5 2.99609 18.5C2.99609 18.5 15.8171 2 33.4961 2C51.1751 2 63.9961 18.5 63.9961 18.5Z" stroke="black" stroke-width="3.5" stroke-miterlimit="10"/>
<path d="M33.4961 30.995C40.3997 30.995 45.9961 25.3986 45.9961 18.495C45.9961 11.5914 40.3997 5.995 33.4961 5.995C26.5925 5.995 20.9961 11.5914 20.9961 18.495C20.9961 25.3986 26.5925 30.995 33.4961 30.995Z" stroke="black" stroke-width="3.5" stroke-miterlimit="10"/>
<path d="M35.5041 22.21C34.6583 22.7377 33.6612 22.9696 32.6694 22.8693C31.6776 22.769 30.7471 22.3423 30.0241 21.656C29.301 20.9697 28.8264 20.0627 28.6746 19.0774C28.5228 18.0922 28.7024 17.0844 29.1853 16.2123C29.6682 15.3402 30.4271 14.6531 31.3427 14.2589C32.2584 13.8647 33.279 13.7857 34.2444 14.0343C35.2098 14.283 36.0653 14.8451 36.6766 15.6325C37.2879 16.42 37.6205 17.3881 37.6221 18.385V18.512" stroke="black" stroke-width="3.5" stroke-miterlimit="10" stroke-linecap="round"/>
</g>
<defs>
<clipPath id="clip0_4_604">
<rect width="65.432" height="36.5" fill="white" transform="translate(0.780029 0.25)"/>
</clipPath>
</defs>
</svg>
