<svg width="67" height="37" fill="none" xmlns="http://www.w3.org/2000/svg"><g clip-path="url(#a)" stroke="#000" stroke-width="3.5" stroke-miterlimit="10"><path d="M63.996 18.5S51.176 35 33.496 35c-17.679 0-30.5-16.5-30.5-16.5S15.817 2 33.496 2c17.68 0 30.5 16.5 30.5 16.5Z"/><path d="M33.496 30.995c6.904 0 12.5-5.596 12.5-12.5s-5.596-12.5-12.5-12.5-12.5 5.596-12.5 12.5 5.597 12.5 12.5 12.5Z"/><path d="M35.504 22.21a4.5 4.5 0 1 1 2.118-3.825v.127" stroke-linecap="round"/></g><defs><clipPath id="a"><path fill="#fff" transform="translate(.78 .25)" d="M0 0h65.432v36.5H0z"/></clipPath></defs></svg>